<svg width="500" height="500" viewBox="0 0 500 500" fill="none" xmlns="http://www.w3.org/2000/svg">
<path d="M441 336.804C441 382.093 421.137 419.747 381.41 449.766C348.449 474.579 309.416 486.986 264.312 486.986C241.933 486.986 216.345 482.908 187.548 474.753C184.425 491.584 175.838 500 161.786 500C151.204 500 143.831 495.575 139.668 486.726C135.678 478.397 133.683 464.515 133.683 445.081C133.683 404.477 139.147 313.639 150.076 172.566L152.158 143.155C154.76 111.4 157.623 90.9249 160.745 81.7283C165.256 68.7142 173.756 62.2072 186.247 62.2072C202.033 62.2072 209.926 72.7052 209.926 93.7012C209.926 87.628 206.891 118.775 200.819 187.142C194.227 260.368 189.976 338.539 188.068 421.655C217.906 430.852 244.535 435.45 267.955 435.45C302.824 435.45 331.361 425.82 353.567 406.559C374.905 387.819 385.574 364.567 385.574 336.804C385.574 282.492 348.102 255.336 273.159 255.336C270.557 255.336 266.567 255.423 261.189 255.596C255.985 255.77 251.995 255.856 249.219 255.856C233.259 255.856 225.279 248.568 225.279 233.993C225.279 223.408 229.703 216.294 238.55 212.65C243.755 210.394 251.388 208.832 261.45 207.965C273.593 206.75 282.007 205.622 286.691 204.581C301.436 200.937 313.32 192.521 322.341 179.334C331.535 165.973 336.132 150.009 336.132 131.442C336.132 105.761 325.637 85.8928 304.646 71.8376C283.655 57.6089 253.643 50.4945 214.61 50.4945C187.895 50.4945 159.097 56.9148 128.218 69.7553C120.758 73.2257 113.212 76.6962 105.579 80.1666C96.7316 83.8105 89.0118 85.6325 82.4196 85.6325C75.654 85.6325 70.1026 83.4635 65.7657 79.1255C61.2552 74.7874 59 69.6686 59 63.7689C59 54.2252 67.5005 44.5081 84.5014 34.6174C124.054 11.5391 171.327 0 226.32 0C277.323 0 317.743 11.5391 347.582 34.6174C376.9 57.5221 391.559 88.0618 391.559 126.236C391.559 161.635 378.374 191.48 352.005 215.773C379.936 224.449 401.707 239.545 417.32 261.062C433.107 282.579 441 307.826 441 336.804Z" fill="#0C0426"/>
<mask id="mask0_14_345" style="mask-type:luminance" maskUnits="userSpaceOnUse" x="59" y="0" width="382" height="500">
<path d="M441 336.804C441 382.093 421.137 419.747 381.41 449.766C348.449 474.579 309.416 486.986 264.312 486.986C241.933 486.986 216.345 482.908 187.548 474.753C184.425 491.584 175.838 500 161.786 500C151.204 500 143.831 495.575 139.668 486.726C135.678 478.397 133.683 464.515 133.683 445.081C133.683 404.477 139.147 313.639 150.076 172.566L152.158 143.155C154.76 111.4 157.623 90.9249 160.745 81.7283C165.256 68.7142 173.756 62.2072 186.247 62.2072C202.033 62.2072 209.926 72.7052 209.926 93.7012C209.926 87.628 206.891 118.775 200.819 187.142C194.227 260.368 189.976 338.539 188.068 421.655C217.906 430.852 244.535 435.45 267.955 435.45C302.824 435.45 331.361 425.82 353.567 406.559C374.905 387.819 385.574 364.567 385.574 336.804C385.574 282.492 348.102 255.336 273.159 255.336C270.557 255.336 266.567 255.423 261.189 255.596C255.985 255.77 251.995 255.856 249.219 255.856C233.259 255.856 225.279 248.568 225.279 233.993C225.279 223.408 229.703 216.294 238.55 212.65C243.755 210.394 251.388 208.832 261.45 207.965C273.593 206.75 282.007 205.622 286.691 204.581C301.436 200.937 313.32 192.521 322.341 179.334C331.535 165.973 336.132 150.009 336.132 131.442C336.132 105.761 325.637 85.8928 304.646 71.8376C283.655 57.6089 253.643 50.4945 214.61 50.4945C187.895 50.4945 159.097 56.9148 128.218 69.7553C120.758 73.2257 113.212 76.6962 105.579 80.1666C96.7316 83.8105 89.0118 85.6325 82.4196 85.6325C75.654 85.6325 70.1026 83.4635 65.7657 79.1255C61.2552 74.7874 59 69.6686 59 63.7689C59 54.2252 67.5005 44.5081 84.5014 34.6174C124.054 11.5391 171.327 0 226.32 0C277.323 0 317.743 11.5391 347.582 34.6174C376.9 57.5221 391.559 88.0618 391.559 126.236C391.559 161.635 378.374 191.48 352.005 215.773C379.936 224.449 401.707 239.545 417.32 261.062C433.107 282.579 441 307.826 441 336.804Z" fill="white"/>
</mask>
<g transform="translate(0.000000,300.000000) scale(0.100000,-0.100000)"
fill="#000000" stroke="none">
<path d="M1564 2877 c-67 -51 -204 -153 -305 -227 -101 -74 -334 -247 -519
-383 -184 -137 -341 -252 -349 -256 -9 -6 3 -22 45 -62 61 -57 542 -511 802
-758 l152 -144 0 -264 c0 -153 -4 -263 -9 -263 -5 0 -11 4 -13 8 -3 7 -205
193 -453 416 -49 45 -116 105 -147 134 l-57 54 -33 -38 c-18 -21 -90 -101
-160 -178 l-127 -140 67 -60 c36 -34 214 -197 394 -364 l328 -303 133 99 c72
54 211 156 307 227 96 71 225 165 285 210 61 45 216 160 345 255 129 95 238
175 242 179 4 3 -219 216 -497 471 l-504 465 0 278 -1 279 43 -39 c48 -42 528
-476 594 -536 l42 -38 43 48 c24 26 96 105 161 175 l118 127 -42 38 c-23 21
-50 45 -59 53 -17 15 -399 367 -589 543 -52 48 -99 87 -105 86 -6 0 -66 -42
-132 -92z m198 -12 c29 -27 107 -99 173 -160 66 -61 202 -187 303 -279 100
-92 182 -174 182 -182 0 -13 -34 -52 -200 -227 l-56 -59 -169 153 c-94 83
-210 189 -260 234 -205 187 -220 198 -251 177 -30 -20 -34 -55 -34 -302 0
-196 3 -257 14 -278 12 -23 102 -111 214 -210 14 -12 60 -55 101 -94 120 -113
204 -191 451 -418 185 -170 204 -190 194 -199 -8 -8 -180 -135 -519 -386 -533
-394 -714 -525 -722 -525 -5 0 -54 41 -109 91 -54 51 -122 113 -149 138 -332
306 -460 429 -460 442 0 21 231 279 250 279 7 0 147 -122 311 -271 165 -148
311 -276 325 -284 25 -13 29 -12 53 10 l26 24 0 245 c0 135 -4 255 -9 268 -8
21 -178 195 -251 258 -14 12 -59 54 -100 93 -199 191 -308 294 -457 436 -90
84 -160 157 -157 162 3 5 76 62 162 126 315 232 403 298 732 542 184 136 340
247 347 246 6 0 36 -23 65 -50z"/>
<path d="M1611 2779 c-34 -23 -73 -56 -87 -75 l-26 -34 22 -33 c13 -17 75 -79
139 -136 64 -58 176 -159 250 -225 74 -67 148 -134 165 -149 17 -15 44 -35 59
-43 25 -14 30 -13 56 6 46 32 121 120 121 142 0 11 -5 28 -10 38 -9 17 -480
457 -558 523 -19 15 -42 27 -52 27 -10 0 -45 -18 -79 -41z m143 -48 c33 -32
165 -154 291 -270 127 -116 231 -215 232 -219 1 -4 -24 -36 -57 -72 -45 -50
-62 -63 -73 -55 -8 6 -131 116 -274 245 -143 129 -279 252 -303 274 -32 29
-40 40 -29 46 8 5 43 31 79 59 36 27 67 50 69 50 2 1 31 -25 65 -58z"/>
<path d="M1290 2541 c-19 -11 -55 -37 -80 -59 l-45 -40 -3 -283 c-2 -182 1
-297 7 -320 11 -37 49 -74 706 -695 231 -218 239 -224 263 -231 39 -9 162 86
162 126 0 21 -39 64 -170 185 -41 38 -97 90 -125 116 -137 127 -480 443 -543
500 l-73 65 -6 309 c-6 282 -8 311 -25 328 -22 22 -24 22 -68 -1z m52 -324
l-3 -314 118 -110 c65 -61 137 -128 161 -149 240 -218 650 -601 649 -606 -3
-13 -111 -89 -123 -86 -6 2 -221 201 -478 443 l-466 440 0 296 0 297 68 51
c37 28 69 51 72 51 3 0 4 -141 2 -313z"/>
<path d="M927 2275 c-104 -77 -119 -101 -89 -142 38 -52 183 -183 204 -183 4
0 16 10 28 22 18 20 20 35 20 178 0 139 -2 159 -18 173 -30 28 -53 20 -145
-48z m133 -131 c0 -91 -4 -164 -9 -162 -23 9 -204 191 -194 195 6 2 49 33 95
68 46 35 89 64 96 64 9 1 12 -39 12 -165z"/>
<path d="M653 2072 c-65 -52 -76 -68 -70 -95 7 -27 137 -154 682 -667 50 -46
121 -114 158 -150 l68 -65 6 -293 c5 -253 9 -297 23 -314 13 -16 23 -19 43
-14 34 8 128 85 144 117 19 37 18 570 -1 607 -16 31 -98 110 -636 618 -146
137 -278 260 -294 272 -41 31 -67 28 -123 -16z m556 -442 l471 -445 -1 -295 0
-295 -65 -47 c-36 -27 -68 -48 -72 -48 -4 0 -6 136 -4 302 l3 303 -465 439
c-257 242 -466 442 -466 445 1 8 114 90 121 88 4 -1 219 -202 478 -447z"/>
<path d="M1809 1049 c-17 -17 -19 -34 -19 -174 0 -146 1 -155 22 -175 14 -13
29 -18 42 -14 25 7 117 74 164 117 52 50 45 69 -57 168 -98 95 -122 108 -152
78z m124 -104 l96 -91 -99 -72 c-54 -40 -101 -72 -104 -72 -3 0 -6 75 -6 166
0 91 4 164 9 162 4 -1 51 -44 104 -93z"/>
<path d="M675 929 c-43 -35 -105 -119 -105 -144 0 -24 23 -51 125 -145 33 -30
114 -105 180 -166 111 -103 143 -132 250 -228 58 -51 83 -48 175 21 53 41 79
78 73 103 -6 22 -65 79 -338 325 -281 254 -282 255 -309 255 -13 0 -36 -10
-51 -21z m340 -270 c160 -143 300 -270 313 -282 l22 -22 -72 -54 c-39 -30 -77
-54 -83 -55 -6 0 -114 93 -240 209 -126 116 -257 235 -291 265 -34 30 -63 59
-63 63 -1 9 110 136 119 137 3 0 136 -117 295 -261z"/>
</g>
<defs>
<radialGradient id="paint0_radial_14_345" cx="0" cy="0" r="1" gradientUnits="userSpaceOnUse" gradientTransform="translate(401 105) scale(506)">
<stop stop-color="#8900FE"/>
<stop offset="1" stop-color="#8900FE" stop-opacity="0"/>
</radialGradient>
</defs>
</svg>
