<?xml version="1.0" standalone="no"?>
<!DOCTYPE svg PUBLIC "-//W3C//DTD SVG 20010904//EN"
 "http://www.w3.org/TR/2001/REC-SVG-20010904/DTD/svg10.dtd">
<svg version="1.0" xmlns="http://www.w3.org/2000/svg"
 width="50.000000pt" height="30.000000pt" viewBox="0 0 490.000000 509.000000"
 preserveAspectRatio="xMidYMid meet">

<g transform="translate(0.000000,509.000000) scale(0.100000,-0.100000)"
fill="#ffffff" stroke="none">
<path d="M2615 4927 c-179 -138 -524 -402 -1390 -1066 -324 -249 -591 -458
-593 -465 -1 -7 32 -45 75 -86 72 -69 1109 -1087 1426 -1400 l137 -136 0 -437
c0 -343 -3 -437 -12 -437 -7 0 -74 57 -148 127 -74 70 -316 297 -538 505 -221
208 -406 378 -410 378 -4 0 -124 -133 -266 -296 l-259 -296 44 -43 c260 -253
1242 -1185 1248 -1185 5 0 22 10 38 23 15 13 251 194 523 402 460 352 691 529
1335 1024 138 106 250 196 250 201 0 7 -636 622 -1402 1353 l-231 222 -1 463
c-1 254 2 462 7 462 4 0 250 -227 546 -505 297 -278 543 -505 547 -505 12 0
514 570 514 584 0 9 -1168 1138 -1261 1218 -19 17 -25 13 -179 -105z m273
-320 c65 -63 277 -266 472 -453 195 -186 356 -345 358 -351 4 -16 -176 -218
-194 -218 -16 0 -1015 936 -1011 948 4 14 231 186 245 187 8 0 66 -51 130
-113z m-698 -856 l0 -529 363 -349 c199 -192 538 -517 754 -723 215 -206 392
-380 392 -387 1 -16 -178 -155 -195 -151 -8 2 -94 82 -191 178 -398 393 -1212
1191 -1275 1250 l-68 63 0 511 0 512 103 76 c56 43 105 78 110 78 4 0 7 -238
7 -529z m-470 -107 c0 -156 -4 -274 -9 -272 -23 9 -311 293 -309 305 3 14 295
243 310 243 4 0 8 -124 8 -276z m-290 -347 c124 -122 469 -463 768 -756 l542
-533 0 -497 0 -496 -101 -78 c-56 -43 -108 -81 -115 -84 -12 -4 -14 77 -14
510 l0 515 -332 329 c-183 181 -523 516 -755 744 -233 228 -422 418 -420 423
5 15 171 145 187 145 8 1 116 -99 240 -222z m1866 -1845 c-1 -16 -297 -242
-308 -236 -10 6 -11 528 -1 538 9 9 311 -285 309 -302z m-1886 -104 c124 -116
352 -330 508 -475 155 -146 280 -269 277 -273 -10 -17 -246 -191 -254 -188
-20 8 -956 913 -955 924 2 13 184 224 193 224 3 0 107 -95 231 -212z"/>
</g>
</svg>
