<?xml version="1.0" standalone="no"?>
<!DOCTYPE svg PUBLIC "-//W3C//DTD SVG 20010904//EN"
 "http://www.w3.org/TR/2001/REC-SVG-20010904/DTD/svg10.dtd">
<svg version="1.0" xmlns="http://www.w3.org/2000/svg"
 width="50.000000pt" height="50.000000pt" viewBox="0 0 50.000000 50.000000"
 preserveAspectRatio="xMidYMid meet">
<metadata>
Created by potrace 1.16, written by Peter Selinger 2001-2019
</metadata>
<g transform="translate(0.000000,312.000000) scale(0.100000,-0.100000)"
fill="#000000" stroke="none">
<path d="M1489 2933 c-307 -236 -1104 -846 -1106 -848 -2 -1 93 -96 210 -211
116 -115 344 -340 505 -499 l292 -290 -2 -273 -3 -272 -140 132 c-77 72 -205
193 -285 269 -177 167 -241 224 -250 224 -13 0 -320 -359 -313 -365 13 -11
705 -671 746 -712 l38 -37 112 87 c62 48 162 126 222 172 61 46 198 151 305
234 222 171 357 274 548 420 l133 101 -73 70 c-40 39 -188 180 -328 315 -140
134 -316 303 -390 376 -74 72 -154 148 -177 169 l-43 38 0 284 c0 155 3 283 6
283 7 0 131 -115 429 -395 194 -183 235 -220 244 -220 4 0 46 43 92 96 46 53
117 132 156 176 l73 80 -318 305 c-387 371 -462 442 -471 446 -4 1 -99 -69
-212 -155z m333 -8 c57 -56 213 -206 348 -335 135 -129 246 -242 248 -252 4
-19 -43 -75 -204 -247 l-51 -54 -159 148 c-87 82 -221 207 -298 279 -154 146
-187 170 -214 162 -37 -12 -42 -47 -42 -317 0 -204 3 -266 14 -287 12 -23 142
-152 481 -477 303 -291 485 -469 485 -475 0 -4 -134 -110 -297 -236 -164 -125
-415 -318 -558 -428 -351 -270 -387 -297 -396 -294 -4 2 -50 44 -101 93 -52
50 -187 180 -302 290 -114 110 -232 222 -262 249 -30 27 -54 57 -54 66 0 15
202 254 243 288 14 12 25 5 89 -54 40 -38 78 -73 84 -79 6 -5 78 -73 160 -151
328 -309 327 -308 360 -286 30 20 34 55 34 303 0 232 -2 254 -19 283 -11 17
-91 100 -178 185 -479 468 -782 773 -777 784 3 7 60 54 127 105 67 50 190 144
272 208 165 126 461 354 769 590 33 25 67 44 77 42 10 -2 65 -48 121 -103z"/>
<path d="M1614 2891 c-64 -43 -98 -77 -109 -110 -7 -22 37 -70 210 -231 77
-71 134 -125 327 -308 95 -89 115 -97 160 -59 49 41 108 121 108 147 0 20 -32
57 -137 161 -338 330 -458 439 -482 439 -10 0 -45 -18 -77 -39z m312 -216
c126 -121 258 -248 294 -282 l64 -61 -58 -68 c-33 -38 -62 -69 -67 -69 -4 0
-130 115 -279 255 -149 140 -289 271 -312 290 l-40 36 78 61 c44 34 82 61 85
60 4 -1 110 -101 235 -222z"/>
<path d="M1269 2624 c-61 -41 -81 -61 -98 -91 -7 -15 -11 -115 -11 -313 0
-241 3 -298 15 -324 9 -18 102 -117 208 -221 106 -104 311 -307 457 -451 171
-169 276 -265 293 -270 23 -5 39 1 82 31 30 20 61 48 70 62 33 49 54 25 -435
493 -123 118 -277 267 -342 330 l-118 115 -7 319 c-6 291 -8 321 -25 338 -24
24 -28 24 -89 -18z m73 -322 l-3 -328 63 -59 c62 -57 389 -372 703 -675 88
-85 160 -158 160 -161 0 -7 -99 -87 -113 -91 -10 -3 -187 168 -679 655 l-273
270 0 306 0 306 68 52 c37 28 69 52 72 52 3 1 4 -147 2 -327z"/>
<path d="M943 2376 c-97 -70 -128 -105 -118 -136 11 -35 191 -210 216 -210 5
0 18 9 29 20 18 18 20 33 20 183 0 158 -1 164 -23 185 -13 12 -26 22 -29 22
-3 0 -45 -29 -95 -64z m117 -141 c0 -96 -3 -175 -8 -175 -4 0 -51 44 -105 98
l-98 98 98 76 c54 42 101 77 106 77 4 1 7 -78 7 -174z"/>
<path d="M674 2168 c-60 -44 -94 -83 -94 -104 0 -26 -7 -18 526 -545 l381
-375 6 -154 c4 -84 7 -221 7 -304 0 -210 16 -230 120 -158 103 71 100 60 100
399 0 235 -3 299 -14 321 -8 15 -102 113 -208 217 -106 105 -315 311 -464 458
-296 291 -297 293 -360 245z m228 -173 c90 -87 301 -296 471 -463 l307 -303 0
-303 0 -302 -65 -52 c-35 -29 -68 -52 -72 -52 -4 0 -7 141 -5 313 l3 314 -465
458 c-256 252 -466 461 -466 464 1 9 114 91 122 88 4 -1 80 -74 170 -162z"/>
<path d="M1811 1093 c-20 -13 -21 -24 -21 -182 0 -156 1 -169 20 -186 19 -17
23 -17 53 -3 18 9 67 43 110 77 106 84 106 94 -12 210 -49 49 -98 91 -110 94
-11 2 -29 -2 -40 -10z m116 -105 c51 -51 93 -95 93 -99 0 -6 -183 -149 -191
-149 -2 0 -4 77 -4 170 0 94 2 170 5 170 2 0 46 -42 97 -92z"/>
<path d="M654 940 c-59 -62 -84 -99 -84 -127 0 -27 -14 -13 454 -461 71 -68
138 -127 150 -132 13 -5 31 -2 47 6 40 20 127 92 145 119 15 23 15 27 -4 57
-12 18 -76 84 -144 147 -68 63 -189 177 -271 254 -162 154 -202 187 -228 187
-9 0 -38 -22 -65 -50z m142 -49 c38 -35 134 -126 214 -201 80 -75 188 -176
240 -225 52 -49 96 -91 97 -94 1 -3 -34 -33 -78 -65 l-81 -59 -81 79 c-45 44
-136 131 -202 195 -66 63 -162 156 -214 206 l-95 91 60 70 c32 39 62 70 65 69
4 -1 38 -31 75 -66z"/>
</g>
</svg>
