<?xml version="1.0" standalone="no"?>
<!DOCTYPE svg PUBLIC "-//W3C//DTD SVG 20010904//EN"
 "http://www.w3.org/TR/2001/REC-SVG-20010904/DTD/svg10.dtd">
<svg version="1.0" xmlns="http://www.w3.org/2000/svg"
 width="50.000000pt" height="50.000000pt" viewBox="0 0 50.000000 50.000000"
 preserveAspectRatio="xMidYMid meet">
<metadata>
Created by potrace 1.16, written by Peter Selinger 2001-2019
</metadata>
<g transform="translate(0.000000,50.000000) scale(0.007812,-0.007440)"
fill="#FFFFFF" stroke="none">
<path d="M3305 6492 c-77 -60 -531 -409 -1010 -776 -478 -367 -888 -682 -910
-701 l-40 -34 480 -472 c264 -260 625 -617 803 -794 l322 -320 -2 -429 -3
-430 -415 390 c-228 214 -466 437 -529 497 -63 59 -120 107 -125 107 -6 0
-125 -131 -265 -291 -245 -281 -253 -292 -235 -308 21 -20 332 -317 882 -844
230 -221 367 -345 375 -341 14 9 181 137 1590 1218 279 214 507 393 507 397 0
6 -465 458 -802 780 -38 35 -232 222 -433 414 l-364 350 -1 454 0 454 58 -54
c493 -466 1007 -944 1013 -944 5 0 124 130 265 289 l256 290 -53 51 c-30 28
-312 298 -628 600 -315 303 -578 551 -585 552 -6 2 -74 -46 -151 -105z m606
-663 l470 -451 -33 -36 c-18 -21 -60 -67 -92 -105 -33 -37 -64 -67 -70 -67
-16 0 -981 907 -981 922 0 10 219 188 232 188 2 0 215 -203 474 -451z m-721
-1320 c488 -469 1081 -1038 1129 -1084 l43 -43 -92 -71 c-51 -40 -99 -71 -106
-69 -7 2 -120 109 -251 238 -131 130 -464 458 -740 729 l-503 494 0 496 0 496
103 78 102 78 5 -525 5 -525 305 -292z m-770 716 c0 -146 -3 -265 -8 -265 -10
0 -307 298 -302 304 19 18 297 226 303 226 4 0 7 -119 7 -265z m-48 -574 c249
-245 584 -573 744 -730 l291 -286 1 -492 2 -492 -102 -80 -103 -79 -3 503 -2
503 -588 578 c-323 319 -656 646 -740 729 -84 82 -151 152 -150 156 6 15 174
139 185 137 7 -2 216 -203 465 -447z m1452 -1429 l144 -143 -145 -112 c-80
-62 -149 -113 -154 -115 -5 -2 -9 106 -9 258 0 159 4 260 9 258 6 -1 75 -67
155 -146z m-1845 -115 c42 -40 262 -248 489 -461 226 -213 412 -391 412 -395
0 -16 -230 -183 -244 -178 -7 3 -221 204 -475 447 -404 388 -459 444 -448 459
30 43 173 201 181 201 4 0 43 -33 85 -73z"/>
<path d="M835 1594 c-45 -25 -104 -71 -163 -128 -75 -73 -95 -144 -71 -257 15
-67 56 -113 153 -167 42 -23 109 -61 150 -83 81 -45 98 -69 89 -124 -7 -41
-52 -85 -88 -85 -29 0 -87 59 -127 127 l-29 52 -79 -52 c-58 -38 -80 -58 -80
-73 0 -37 75 -136 141 -186 34 -27 86 -55 115 -65 49 -15 56 -15 97 1 68 26
207 142 235 198 30 58 34 176 8 225 -23 46 -97 105 -221 175 -60 34 -123 75
-139 91 -25 25 -28 33 -23 70 7 50 44 87 86 87 33 0 97 -63 130 -129 12 -23
26 -41 32 -41 17 0 159 101 159 113 0 52 -126 194 -211 238 -56 28 -126 34
-164 13z"/>
<path d="M1745 1571 c-80 -53 -171 -149 -197 -208 -20 -46 -21 -63 -22 -423
l-1 -375 102 -3 102 -3 3 108 3 108 98 3 97 3 0 -111 0 -110 106 0 105 0 -3
388 c-3 447 2 421 -109 531 -79 79 -141 122 -187 128 -31 4 -47 -2 -97 -36z
m131 -206 c46 -46 54 -82 54 -250 l0 -156 -97 3 -98 3 0 150 c1 173 4 192 46
240 37 41 61 44 95 10z"/>
<path d="M2545 1559 c-106 -76 -102 -66 -58 -145 l38 -69 3 -392 3 -393 105 0
104 0 0 388 c0 425 -1 415 61 447 35 19 57 10 91 -37 23 -33 23 -34 26 -416
l3 -383 102 3 102 3 0 410 c0 476 8 438 -113 541 -129 110 -154 115 -252 44
l-55 -40 -20 27 c-26 36 -53 63 -62 62 -5 0 -39 -23 -78 -50z"/>
<path d="M3798 1227 l-3 -364 -28 -36 c-15 -20 -40 -40 -54 -43 -22 -6 -33 0
-70 40 -24 25 -46 46 -49 46 -2 0 -40 -25 -84 -56 -74 -51 -79 -57 -68 -77 40
-76 148 -168 220 -188 62 -16 113 8 213 102 136 129 129 104 133 557 l3 382
-105 0 -105 0 -3 -363z"/>
<path d="M4390 1075 l0 -515 105 0 105 0 -2 513 -3 512 -102 3 -103 3 0 -516z"/>
<path d="M4910 1500 l0 -90 95 0 95 0 0 -425 0 -425 105 0 105 0 0 425 0 425
95 0 95 0 0 90 0 90 -295 0 -295 0 0 -90z"/>
</g>
</svg>
